<?xml version="1.0" encoding="utf-8"?><!-- Uploaded to: SVG Repo, www.svgrepo.com, Generator: SVG Repo Mixer Tools -->
<svg version="1.1" id="Uploaded to svgrepo.com" xmlns="http://www.w3.org/2000/svg" xmlns:xlink="http://www.w3.org/1999/xlink" 
	 width="800px" height="800px" viewBox="0 0 32 32" xml:space="preserve">
<style type="text/css">
	.stone_een{fill:#0B1719;}
</style>
<path class="stone_een" d="M25,7h4c0.552,0,1,0.448,1,1v17c0,1.571-1.212,2.846-2.75,2.975C25.99,27.847,25,26.793,25,25.5V7z
	 M13,10H6v7h7V10z M25.058,28H5c-1.657,0-3-1.343-3-3V7c0-0.552,0.448-1,1-1h20c0.552,0,1,0.448,1,1v18.5
	C24,26.48,24.407,27.364,25.058,28z M5,17c0,0.552,0.448,1,1,1h7c0.552,0,1-0.448,1-1v-7c0-0.552-0.448-1-1-1H6
	c-0.552,0-1,0.448-1,1V17z M22,23.5c0-0.276-0.224-0.5-0.5-0.5h-16C5.224,23,5,23.224,5,23.5S5.224,24,5.5,24h16
	C21.776,24,22,23.776,22,23.5z M22,21.5c0-0.276-0.224-0.5-0.5-0.5h-16C5.224,21,5,21.224,5,21.5S5.224,22,5.5,22h16
	C21.776,22,22,21.776,22,21.5z M22,19.5c0-0.276-0.224-0.5-0.5-0.5h-16C5.224,19,5,19.224,5,19.5S5.224,20,5.5,20h16
	C21.776,20,22,19.776,22,19.5z M22,17.5c0-0.276-0.224-0.5-0.5-0.5h-6c-0.276,0-0.5,0.224-0.5,0.5s0.224,0.5,0.5,0.5h6
	C21.776,18,22,17.776,22,17.5z M22,15.5c0-0.276-0.224-0.5-0.5-0.5h-6c-0.276,0-0.5,0.224-0.5,0.5s0.224,0.5,0.5,0.5h6
	C21.776,16,22,15.776,22,15.5z M22,13.5c0-0.276-0.224-0.5-0.5-0.5h-6c-0.276,0-0.5,0.224-0.5,0.5s0.224,0.5,0.5,0.5h6
	C21.776,14,22,13.776,22,13.5z M22,11.5c0-0.276-0.224-0.5-0.5-0.5h-6c-0.276,0-0.5,0.224-0.5,0.5s0.224,0.5,0.5,0.5h6
	C21.776,12,22,11.776,22,11.5z M22,9.5C22,9.224,21.776,9,21.5,9h-6C15.224,9,15,9.224,15,9.5s0.224,0.5,0.5,0.5h6
	C21.776,10,22,9.776,22,9.5z"/>
</svg>